<svg version="1.1" xmlns="http://www.w3.org/2000/svg" style="display: block;" viewBox="0 0 2048 1917" width="796" height="745" preserveAspectRatio="none">
<path transform="translate(0,0)" fill="rgb(252,239,211)" d="M 0 0 L 2048 0 L 2048 1917 L 0 1917 L 0 0 z"/>
<path transform="translate(0,0)" fill="rgb(0,52,79)" d="M 837.336 80.7005 C 857.347 71.3938 876.655 60.6034 897.108 52.263 C 955.091 28.6183 1022.89 20.4273 1082.66 42.0876 C 1104.74 50.0855 1119.98 62.6675 1135.38 80.0111 L 1590.45 79.9582 L 1709.23 79.9379 C 1748.46 79.9176 1787.37 78.4433 1825.97 86.755 C 1865.69 95.5079 1902.08 115.415 1930.86 144.136 C 1958.55 171.837 1977.3 207.195 1984.71 245.653 C 1992.33 287.318 1989.34 332.041 1989.32 374.278 L 1989.28 555.57 L 1989.11 1209.7 C 1978.11 1195.66 1965 1182.85 1952.32 1170.32 C 1900.2 1118.81 1840.52 1079.7 1766.29 1070.67 C 1707.34 1063.51 1644.38 1074.01 1596.89 1111.52 C 1570.75 1132.17 1546.54 1163.73 1542.53 1197.73 C 1541.65 1205.23 1542.17 1212.84 1541.37 1220.24 C 1543.81 1228.39 1546.07 1236.38 1554.05 1240.86 C 1558.33 1243.27 1563.28 1243.55 1567.96 1242.21 C 1584.44 1237.48 1600.26 1211.08 1612.65 1199.01 C 1672.07 1141.12 1762.51 1148.3 1831.53 1183.97 C 1886.54 1212.41 1934.97 1258.67 1970.48 1309.02 C 1976.31 1317.28 1984.96 1327.75 1987.68 1337.5 C 1991.12 1349.86 1988.99 1370.73 1988.99 1383.87 L 1988.97 1465.27 L 1989 1596.52 C 1989 1623.91 1990.7 1652.37 1986.83 1679.48 C 1982.74 1707.05 1973.25 1733.54 1958.91 1757.44 C 1928.99 1806.85 1879.14 1840.68 1823.39 1854.34 C 1779.33 1865.14 1732.25 1862.04 1687.23 1862.04 L 1548.13 1862.04 L 1033.82 1862.02 L 519.935 1862.01 L 357.301 1862.03 C 325.348 1862.04 292.738 1863.37 260.883 1860.87 C 222.743 1857.88 186.614 1847.18 153.911 1827.04 C 106.303 1797.19 72.5074 1749.64 59.9643 1694.86 C 56.8993 1681.97 54.9605 1668.61 54.8333 1655.35 C 52.5569 1640.72 54.0093 1624.12 54.0187 1609.28 L 54.1243 1516.96 C 54.3251 1498.5 50.5608 1458.79 57.6966 1443.71 C 63.9617 1430.48 74.1298 1417.69 82.9348 1406 C 118.344 1358.97 175.374 1297.08 232.256 1277.24 C 246.419 1272.29 258.716 1271.73 272.499 1278.39 C 274.316 1276.39 276.179 1274.43 278.088 1272.52 C 303.35 1247.3 333.822 1229.08 370.375 1229.62 C 381.409 1229.78 392.447 1231.49 402.377 1236.53 C 422.712 1246.87 434.677 1267.58 459.977 1266.93 C 471.429 1266.64 482.55 1261.32 490.269 1252.92 C 499.914 1242.41 505.933 1226.37 504.829 1212.11 C 503.737 1197.99 496.615 1186.9 486.169 1177.88 C 459.62 1154.95 421.904 1148.67 387.943 1151.52 C 278.428 1160.72 183.384 1233.93 110.486 1311.1 C 90.7934 1331.95 72.6163 1354.71 54.0615 1376.6 C 54.058 1364 53.4902 1351.19 54.8945 1338.65 C 52.7016 1325.78 53.9096 1311.04 53.9348 1297.99 L 54.0008 1228.72 L 53.9975 968.826 L 54.0092 498.732 L 54.0813 355.255 C 54.1594 324.218 53.0812 289.209 57.1069 258.7 C 64.6625 204.464 93.4284 155.44 137.091 122.391 C 165.492 100.648 199.682 88.4369 234.873 83.3683 C 279.679 76.915 333.318 79.9169 378.968 79.9521 L 614.975 79.977 L 762.859 79.9029 C 785.729 79.8734 815.341 77.8562 837.336 80.7005 z"/>
<path transform="translate(0,0)" fill="rgb(107,205,201)" d="M 1135.38 80.0111 L 1590.45 79.9582 L 1709.23 79.9379 C 1748.46 79.9176 1787.37 78.4433 1825.97 86.755 C 1865.69 95.5079 1902.08 115.415 1930.86 144.136 C 1958.55 171.837 1977.3 207.195 1984.71 245.653 C 1992.33 287.318 1989.34 332.041 1989.32 374.278 L 1989.28 555.57 L 1989.11 1209.7 C 1978.11 1195.66 1965 1182.85 1952.32 1170.32 C 1900.2 1118.81 1840.52 1079.7 1766.29 1070.67 C 1707.34 1063.51 1644.38 1074.01 1596.89 1111.52 C 1570.75 1132.17 1546.54 1163.73 1542.53 1197.73 C 1541.65 1205.23 1542.17 1212.84 1541.37 1220.24 C 1541.13 1220.84 1540.8 1221.51 1540.69 1222.16 C 1539.42 1229.46 1545.63 1243.11 1549.72 1248.69 C 1556.06 1257.4 1565.75 1263.06 1576.45 1264.29 C 1600.63 1267.28 1610.84 1248.88 1627.19 1236.12 C 1636.19 1229.11 1645.87 1227.34 1656.95 1228.67 C 1673.79 1230.7 1688.78 1240.21 1698.94 1253.6 C 1717.25 1277.72 1721.95 1311.65 1717.94 1341.01 C 1711.76 1386.26 1685.15 1425.28 1649 1452.42 C 1629.19 1467.29 1605.75 1479.36 1582.3 1487.44 C 1570.28 1491.57 1552.52 1498.61 1539.96 1497.18 C 1512.83 1494.1 1467.74 1449.02 1439.77 1434.91 C 1420.42 1425.16 1400.63 1421.12 1379.4 1418.04 C 1379 1412.63 1378.42 1407.56 1376.45 1402.46 C 1366.93 1377.86 1338.35 1349.99 1324.89 1322.4 C 1292.6 1256.24 1282.83 1166.35 1229.86 1114.22 C 1238.52 1097.43 1252.3 1083.82 1264.38 1069.5 C 1275.95 1055.77 1286.88 1040.7 1295.55 1024.98 C 1317.7 984.804 1333 934.912 1325.75 888.882 C 1321.1 859.421 1310.03 830.027 1301.21 801.547 C 1291.92 771.561 1284.25 741.043 1275.51 710.884 C 1293.54 718.242 1311.8 725.02 1330.27 731.207 C 1342.56 735.404 1355.38 739.111 1367.3 744.264 C 1377.35 748.608 1386.12 755.403 1395.27 761.343 C 1407.3 769.166 1419.71 776.395 1432.46 783.005 C 1468.64 801.431 1506.02 817.555 1542.43 835.565 C 1557.07 842.81 1572.31 849.743 1586.12 858.46 C 1590.8 873.514 1595.29 889.671 1603.56 903.175 C 1620.16 930.291 1637.71 923.805 1657.98 938.626 C 1675.51 951.436 1681.87 972.082 1705.11 977.565 C 1715.39 979.991 1726.45 978.893 1735.39 972.995 C 1743.44 967.683 1748.28 959.086 1749.83 949.678 C 1753.38 928.015 1741.68 909.684 1729.69 892.878 C 1745.49 892.928 1761.34 893.1 1777.06 894.853 C 1799.41 897.347 1823.49 906.435 1845.98 901.921 C 1854.99 900.113 1863.99 895.956 1869.04 887.942 C 1874.1 879.919 1874.13 871.552 1872.08 862.713 C 1882.29 859.741 1892.06 856.936 1900.97 850.895 C 1908.75 845.62 1914.58 838.483 1916.13 829.025 C 1917.24 822.321 1916.02 815.755 1911.81 810.336 C 1904.19 800.537 1893.06 798.825 1881.57 797.651 C 1882.1 795.021 1882.59 792.388 1882.74 789.704 C 1883.17 781.936 1881.43 774.348 1875.92 768.601 C 1871.72 764.227 1865.26 761.104 1859.21 760.726 C 1840.48 759.554 1819.55 765.495 1800.98 768.211 C 1762.76 773.801 1722.18 780.023 1683.54 780.115 C 1664.24 768.801 1646.72 752.859 1628.88 739.358 L 1530.78 666.233 C 1507.8 648.963 1483.78 633.121 1458.86 618.796 C 1440.8 608.461 1421.98 599.31 1404.36 588.249 C 1381.47 573.882 1360.48 555.963 1338.19 540.584 C 1276.53 498.042 1226.86 478.11 1155.43 458.298 C 1167.58 435.299 1177.5 410.646 1183.21 385.232 C 1189.12 358.972 1188.84 334.308 1174.03 311.099 C 1175.55 305.899 1176.81 300.626 1177.81 295.3 C 1183.46 266.087 1184.7 229.807 1167.3 204.275 C 1181.31 192.888 1191.74 179.418 1194.02 161.01 C 1196.8 138.652 1184.03 115.731 1165.96 103.076 C 1155.78 95.9414 1143.79 91.136 1136.13 81.0207 L 1135.38 80.0111 z"/>
<path transform="translate(0,0)" fill="rgb(252,239,211)" d="M 1673.54 240.418 C 1685.31 239.686 1697.11 241.032 1708.41 244.395 C 1735.81 252.291 1758.87 270.89 1772.39 295.995 C 1784.39 318.414 1786.72 341.952 1779.46 366.211 C 1788.27 361.513 1796.61 357.819 1806.66 356.882 C 1823.21 355.281 1839.71 360.403 1852.45 371.094 C 1865.87 382.471 1873.75 399.411 1875.08 416.846 C 1875.76 425.79 1876.18 439.12 1869.71 446.103 C 1867 449.033 1864.03 449.916 1860.18 450.4 C 1850.86 451.572 1840.77 450.832 1831.35 450.834 L 1777.91 450.822 L 1598.75 450.804 L 1478.23 450.898 C 1457.83 450.918 1436.57 452.233 1416.26 450.575 C 1412.06 450.232 1409.25 449.513 1406.58 445.991 C 1403.28 441.643 1402.97 436 1403.73 430.78 C 1405.5 418.39 1412.43 407.325 1422.8 400.319 C 1436.61 390.872 1453.24 390.657 1469.03 393.755 C 1470.63 382.269 1473.11 372.292 1479.9 362.691 C 1489.42 349.317 1503.94 340.366 1520.16 337.882 C 1540.6 334.741 1557.93 340.759 1574.19 352.842 C 1573.8 350.352 1573.53 347.846 1573.37 345.331 C 1571.5 319.517 1579.3 295.685 1596.37 276.105 C 1616.28 253.26 1643.81 242.541 1673.54 240.418 z"/>
<path transform="translate(0,0)" fill="rgb(107,205,201)" d="M 54.8945 1338.65 C 52.7016 1325.78 53.9096 1311.04 53.9348 1297.99 L 54.0008 1228.72 L 53.9975 968.826 L 54.0092 498.732 L 54.0813 355.255 C 54.1594 324.218 53.0812 289.209 57.1069 258.7 C 64.6625 204.464 93.4284 155.44 137.091 122.391 C 165.492 100.648 199.682 88.4369 234.873 83.3683 C 279.679 76.915 333.318 79.9169 378.968 79.9521 L 614.975 79.977 L 762.859 79.9029 C 785.729 79.8734 815.341 77.8562 837.336 80.7005 C 808.797 96.0584 773.97 112.139 741.456 115.035 C 731.694 115.904 721.678 115.024 711.932 114.282 C 704.486 113.715 692.55 111.471 688.91 120.225 C 685.706 127.933 692.348 140.305 696.013 147.073 C 705.556 164.696 720.95 180.486 738.799 189.765 C 717.982 201.814 694.319 217.786 670.779 223.029 C 662.416 224.892 653.536 225.238 645.022 226.173 C 638.613 226.877 629.467 227.912 627.543 235.446 C 625.606 243.029 632.625 253.17 636.612 259.225 C 656.87 289.99 687.189 304.441 721.721 313.7 C 711.756 316.304 678.503 322.1 674.031 330.398 C 672.497 333.245 672.508 336.315 673.636 339.301 C 680.228 356.748 715.862 379.156 732.864 386.287 C 738.146 388.507 743.573 390.368 749.106 391.856 C 746.821 402.556 747.69 410.599 753.809 420.051 C 762.458 433.41 776.123 442.62 790.187 449.481 C 722.667 463.104 655.544 476.014 588.959 493.948 C 526.295 510.826 465.173 532.697 402.936 551.006 C 387.211 555.632 362.018 565.353 345.942 565.456 C 334.13 565.532 318.641 556.959 307.478 552.948 C 280.062 543.096 251.933 534.727 224.134 526.021 C 204.871 519.988 172.748 507.092 153.261 507.122 C 143.559 507.137 134.779 509.811 129.367 518.448 C 124.534 526.162 124.205 535.142 123.98 543.944 C 115.831 545.204 108.285 546.967 103.079 554.021 C 99.4801 558.896 98.7175 565.232 99.7458 571.087 C 101.25 579.653 106.773 588.021 113.96 592.911 C 117.21 595.123 120.776 596.966 124.189 598.918 C 120.154 605.131 116.433 611.756 117.817 619.49 C 118.763 624.776 122.316 628.851 126.672 631.777 C 145.104 644.155 188.686 637.55 212.153 641.163 C 232.628 644.316 250.474 651.443 268.919 660.469 C 248.525 672.299 215.156 681.939 208.71 707.955 C 206.681 716.144 208.601 724.732 213.267 731.686 C 219.069 740.334 229.154 744.362 239.063 746.015 C 261.589 749.773 284.023 735.612 304.534 728.64 C 326.96 721.018 349.013 718.74 368.813 704.4 C 379.162 696.905 387.221 687.411 395.276 677.601 C 445.047 670.68 495.127 666.775 544.52 657.121 C 561.719 653.725 578.79 649.714 595.701 645.095 C 608.849 641.456 622.907 636.146 636.482 634.788 C 652.494 633.185 669.918 635.401 686.135 635.466 L 806.634 635.353 C 824.738 664.614 843.208 693.646 862.04 722.444 C 888.8 762.587 917.315 802.063 946.03 840.835 C 871.712 855.442 728.588 887.453 684.328 953.949 C 670.947 974.053 668.654 997.266 673.457 1020.58 C 684.058 1072.03 722.417 1129.52 749.277 1174.44 C 763.318 1197.76 776.675 1221.48 789.33 1245.58 C 772.274 1256.28 756.069 1268.11 738.052 1277.22 C 717.962 1287.39 696.737 1294.29 676.369 1303.64 C 660.567 1310.91 654.674 1320.89 635.602 1320.69 C 621.244 1320.53 602.412 1318.21 597.835 1336.34 C 594.845 1348.19 596.779 1373.58 596.801 1386.75 L 596.937 1490.29 C 548.63 1499.27 501.783 1497.35 460.032 1468.51 C 428.01 1446.14 406.171 1411.98 399.309 1373.53 C 393.883 1342.81 398.207 1310.39 413.727 1283.11 C 436.568 1294.41 459.536 1300.47 484.576 1292.1 C 503.203 1285.88 518.159 1271.75 526.669 1254.18 C 535.74 1235.46 536.913 1212.28 530.068 1192.65 C 520.905 1166.38 500.015 1146.24 475.188 1134.51 C 420.278 1108.55 355.5 1119.11 300.421 1139.18 C 213.234 1170.93 101.772 1259.14 54.8945 1338.65 z"/>
<path transform="translate(0,0)" fill="rgb(252,239,211)" d="M 356.557 198.375 C 368.808 197.514 381.141 198.198 393.066 201.27 C 417.896 207.648 439.16 223.661 452.151 245.763 C 465.356 268.915 468.921 296.332 462.076 322.091 C 471.483 316.866 481.215 313.297 492.052 312.748 C 506.75 311.898 521.185 316.918 532.185 326.703 C 544.011 337.408 549.93 351.595 550.624 367.382 C 550.946 374.715 551.113 385.092 545.501 390.599 C 542.846 393.205 539.828 393.727 536.258 394.037 C 515.61 395.833 490.975 394.162 469.917 394.155 L 333.25 394.114 C 312.538 394.136 147.657 396.24 141.996 392.358 C 139.236 390.466 137.876 387.575 137.364 384.343 C 136.134 376.578 139.051 366.274 143.942 360.159 C 153.606 348.077 165.891 343.748 180.684 341.908 C 180.43 327.673 182.667 315.324 191.193 303.621 C 199.927 291.633 212.714 283.626 227.412 281.43 C 243.802 278.982 256.931 283.513 269.971 293.087 C 269.901 270.869 275.187 250.965 289.45 233.525 C 306.515 212.656 329.979 201.075 356.557 198.375 z"/>
<path transform="translate(0,0)" fill="rgb(252,239,211)" d="M 296.464 865.175 C 308.865 864.428 318.885 865.586 329.927 871.551 C 369.44 892.899 395.285 982.257 407.845 1024.14 C 404.054 1019.76 400.484 1015.15 396.844 1010.64 C 381.644 992.004 366.74 973.052 349.263 956.467 C 342.216 949.78 334.724 944.044 326.645 938.646 C 310.521 927.873 282.544 915.01 276.681 895.086 C 275.01 889.409 275.515 883.133 278.382 877.919 C 282.219 870.941 289.163 867.453 296.464 865.175 z"/>
<path transform="translate(0,0)" fill="rgb(252,239,211)" d="M 241.822 978.303 C 249.634 977.89 257.128 979.292 264.59 981.523 C 305.093 993.633 334.822 1028.06 354.408 1064.06 C 349.288 1059.51 344.073 1055.36 338.51 1051.35 C 328.095 1044.21 316.307 1038.09 303.862 1035.48 C 278.94 1030.25 247.293 1039.14 224.739 1025.48 C 219.552 1022.34 215.175 1017.9 214.046 1011.75 C 212.683 1004.31 215.797 995.943 220.234 990.048 C 225.712 982.769 233.046 979.584 241.822 978.303 z"/>
<path transform="translate(0,0)" fill="rgb(0,112,145)" d="M 225.216 1329.49 C 199.07 1372.93 193.699 1431.71 205.748 1480.5 C 219.511 1536.22 256.477 1587.1 305.817 1616.6 C 351.167 1643.73 402.907 1648.07 453.614 1634.89 C 501.983 1622.33 540.351 1592.51 583.126 1568.48 C 603.123 1557.25 624.378 1547.05 646.204 1539.93 C 708.699 1519.52 781.788 1519.7 843.74 1541.72 C 864.125 1548.96 883.376 1558.89 902.042 1569.76 C 931.43 1586.88 957.689 1608.23 984.967 1628.36 C 1028.08 1660.18 1076.21 1688.25 1129.99 1696.26 C 1147.85 1698.93 1166.22 1698.71 1184.25 1699.13 C 1218.76 1699.93 1253.55 1703.54 1286 1715.98 C 1318.86 1728.58 1336.07 1747.16 1363.26 1766.74 C 1380.14 1778.89 1397.44 1788.19 1416.43 1796.64 C 1397 1794.15 1377.64 1791.42 1358.69 1786.35 C 1320.24 1776.05 1283.57 1761.32 1243.64 1757.32 C 1225.78 1755.54 1208.34 1756.6 1190.5 1757.6 C 1142.79 1760.27 1109.66 1761.94 1063.16 1746.04 C 995.22 1722.81 954.483 1677.12 896.858 1638.31 C 793.332 1568.6 670.518 1566.27 569.865 1643.89 C 563.109 1649.1 556.522 1654.55 549.686 1659.65 C 612.24 1638.82 685.335 1632.7 745.72 1662.98 C 795.829 1688.11 834.927 1729.31 880.88 1760.71 C 907.32 1778.77 937.456 1789.06 965.33 1804.27 C 936.987 1799.51 908.767 1801.94 880.23 1801.53 C 847.778 1801.07 818.292 1793.34 788.319 1781.49 C 784.096 1779.82 770.617 1775.3 768.565 1771.2 C 768.309 1770.69 768.208 1770.11 768.029 1769.57 C 758.071 1776 747.69 1780.78 736.052 1783.26 C 681.334 1794.95 652.048 1766.74 609.978 1739.48 C 604.956 1741.47 579.904 1738.78 566.915 1742.12 C 547.87 1747.02 529.13 1756.43 510.819 1763.67 C 464.97 1781.77 417.84 1791.45 368.405 1788.87 C 329.651 1786.86 285.86 1773.55 254.432 1749.97 C 245.282 1743.1 237.554 1735.07 229.915 1726.63 C 239.565 1731.08 249.313 1734.89 259.51 1737.93 C 318.85 1755.65 391.508 1751.08 446.239 1721.22 C 413.51 1726.34 376.174 1723.39 344.489 1714.1 C 292.828 1698.95 243.028 1662.37 216.842 1614.8 C 210.43 1617.21 203.992 1619.21 197.397 1616.17 C 191.866 1613.62 189.013 1609.23 186.556 1603.89 C 154.625 1624.57 124.273 1638 85.9644 1642.06 C 85.4112 1642.17 84.8595 1642.29 84.3047 1642.4 C 75.5567 1644.05 63.3674 1640.97 56.1708 1645.71 C 54.2225 1648.52 54.7587 1652.07 54.8333 1655.35 C 52.5569 1640.72 54.0093 1624.12 54.0187 1609.28 L 54.1243 1516.96 C 54.4742 1518.72 54.4185 1520.66 55.7735 1521.88 C 57.3188 1518.74 58.042 1515.46 59.3764 1512.26 C 63.4536 1502.48 68.3613 1492.74 73.4847 1483.46 C 108.946 1419.26 162.964 1367.44 225.216 1329.49 z"/>
<path transform="translate(0,0)" fill="rgb(252,239,211)" d="M 609.978 1739.48 C 579.615 1719.31 546.24 1720.36 511.549 1727.36 C 495.032 1730.69 472.769 1739.48 457.514 1729.07 C 455.244 1727.52 453.863 1726.03 452.461 1723.7 C 452.187 1721.25 451.863 1720.11 453.734 1718.12 C 458.393 1713.17 528.107 1690.64 539.167 1688.66 C 551.608 1686.44 564.654 1685.77 577.223 1687.24 C 628.652 1693.24 657.406 1737.77 703.267 1755.83 C 713.781 1759.95 724.726 1762.87 735.894 1764.54 C 740.687 1765.27 766.628 1766.31 768.565 1767.64 L 768.029 1769.57 C 758.071 1776 747.69 1780.78 736.052 1783.26 C 681.334 1794.95 652.048 1766.74 609.978 1739.48 z"/>
<path transform="translate(0,0)" fill="rgb(252,239,211)" d="M 85.9644 1642.06 C 90.0345 1639.04 95.4928 1637.38 100.024 1635.11 C 108.324 1630.89 116.257 1625.98 123.741 1620.43 C 142.049 1607.04 171.5 1568.39 191.488 1564.74 C 197.793 1563.58 203.816 1564.92 209.059 1568.59 C 215.613 1573.18 222.092 1583.02 223.423 1591.01 C 224.916 1599.96 221.769 1607.59 216.842 1614.8 C 210.43 1617.21 203.992 1619.21 197.397 1616.17 C 191.866 1613.62 189.013 1609.23 186.556 1603.89 C 154.625 1624.57 124.273 1638 85.9644 1642.06 z"/>
<path transform="translate(0,0)" fill="rgb(218,80,22)" d="M 878.453 460.37 L 890.071 460.998 C 878.404 482.681 878.737 504.442 884.725 527.91 C 892.863 559.804 912.467 588.799 941.144 605.542 C 963.37 618.519 991.599 624.444 1016.81 617.697 C 1040.24 611.426 1062.4 592.778 1075.89 573.016 C 1081.01 565.525 1084.97 557.165 1090.54 549.983 C 1095.98 542.96 1104.94 538.402 1111.13 531.819 C 1123.16 519.021 1131.4 502.082 1140.2 486.967 C 1153.88 489.69 1167.44 492.647 1180.68 497.08 C 1176.85 498.92 1173.51 501.056 1170.31 503.862 C 1151.43 520.429 1144.55 547.469 1143.02 571.623 C 1140.46 612.001 1146.04 659.632 1174.01 691.067 C 1193.23 712.674 1219.83 718.371 1247.48 719.977 C 1253.53 735.303 1257.07 752.212 1261.37 768.12 C 1266.92 791.738 1274.62 815.294 1282.26 838.304 C 1236.54 863.959 1179.98 873.226 1128.54 880.175 C 1088.71 885.556 1039.67 883.301 1006.53 857.744 C 980.375 837.576 952.456 794.235 932.557 766.96 C 907.906 733.171 876.438 693.414 858.502 655.94 C 847.314 632.567 840.41 608.146 837.205 582.448 C 833.384 551.807 832.725 496.85 852.988 472.192 C 859.923 463.753 868.099 461.48 878.453 460.37 z"/>
<path transform="translate(0,0)" fill="rgb(0,52,79)" d="M 1159.29 827.217 C 1160.67 826.872 1162 826.835 1163.41 826.741 L 1164.46 828.135 C 1164.24 829.219 1164.3 829.253 1163.69 830.397 C 1157.97 841.008 1130.92 851.796 1119.53 854.837 C 1086.03 863.776 1054.44 857.771 1024.76 840.576 C 1017.97 835.995 1011.43 831.333 1005.08 826.163 C 1061.61 847.38 1102.55 839.118 1159.29 827.217 z"/>
<path transform="translate(0,0)" fill="rgb(0,112,145)" d="M 1682.91 1198.33 C 1695.04 1198.56 1707.15 1197.82 1719.23 1199.24 C 1749.45 1202.81 1776.15 1219.47 1794.85 1243.19 C 1827.82 1285.02 1835.1 1344.98 1828.62 1396.47 C 1818.45 1477.16 1765.85 1559.51 1696.6 1602.45 C 1682.66 1611.09 1666.12 1618.34 1650.69 1623.82 C 1638.4 1628.17 1625.69 1631.26 1612.78 1633.06 C 1605.5 1634.06 1597.38 1634.33 1590.32 1636.24 C 1588.03 1636.85 1586.28 1638.07 1584.44 1639.53 C 1584.19 1639.73 1583.94 1639.94 1583.69 1640.15 C 1581.86 1644.71 1580.12 1646.74 1575.83 1649.17 C 1570 1658.42 1556.01 1665.03 1545.97 1668.46 C 1532.84 1672.95 1518.98 1674.27 1505.17 1673.56 C 1455.24 1671 1428.1 1641.37 1387.08 1619.68 C 1369.43 1610.34 1349.84 1603.88 1330.25 1600.19 C 1303.31 1595.1 1276.17 1595.36 1249 1598.02 C 1194.74 1603.32 1153.74 1613.38 1101.83 1587.49 C 1112.08 1587.64 1120.8 1586.39 1130.39 1582.7 C 1150.28 1575.04 1169.15 1560.64 1187.22 1549.36 C 1204.89 1538.33 1223.18 1528.24 1240.04 1515.97 C 1245.11 1517.63 1250.16 1519.11 1255.45 1519.93 C 1287.8 1524.97 1319.9 1503.22 1341.9 1481.9 C 1351.52 1472.58 1360.45 1461.66 1371.36 1453.89 L 1372.51 1453.08 C 1451.31 1450.33 1504.77 1557.55 1598.02 1566.74 C 1637.38 1570.61 1665.39 1560.04 1695.64 1535.22 C 1668.7 1540.18 1637.07 1542.45 1610.63 1534.65 C 1601.12 1531.85 1591.92 1527.55 1582.81 1523.67 C 1589.91 1521.66 1596.99 1519.62 1603.92 1517.08 C 1659.24 1496.78 1711.1 1452.02 1735.79 1398.42 C 1755.06 1356.58 1759.2 1304.13 1742.7 1260.73 C 1731.39 1230.97 1711.68 1211.42 1682.91 1198.33 z"/>
<path transform="translate(0,0)" fill="rgb(252,239,211)" d="M 1575.83 1649.17 C 1530.55 1659.5 1489.93 1651.59 1455.71 1619.36 C 1441.23 1605.72 1427.05 1589.99 1409.6 1580.09 C 1400.92 1575.14 1391.56 1571.52 1381.82 1569.33 C 1372.98 1567.32 1357.8 1567.19 1350.29 1562.67 C 1348.22 1561.42 1346.8 1559.8 1346.28 1557.37 C 1345.51 1553.8 1346.82 1549.77 1349.16 1547.05 C 1356.14 1538.89 1371.95 1536.68 1382.16 1536.01 C 1454.24 1531.26 1464.67 1588.03 1517.59 1614.87 C 1525.1 1618.69 1533.11 1621.47 1541.37 1623.11 C 1549.75 1624.78 1576.14 1624.48 1581.31 1628.98 C 1583.51 1632.48 1583.41 1636.13 1583.69 1640.15 C 1581.86 1644.71 1580.12 1646.74 1575.83 1649.17 z"/>
<path transform="translate(0,0)" fill="rgb(252,177,105)" d="M 1022.24 178.391 C 1055.31 173.65 1103.12 183.382 1132.97 198.033 C 1137.03 209.475 1142.09 218.754 1148.88 228.824 C 1144 225.819 1139.68 223.057 1133.89 222.173 C 1126.29 221.015 1118.47 222.773 1112.33 227.457 C 1108.43 230.425 1104.12 235.554 1103.78 240.677 C 1103.61 243.172 1104.24 244.159 1105.76 246.029 C 1113.09 248.466 1124.44 243.6 1131.74 241.525 C 1139.57 245.009 1146.14 248.794 1152.45 254.645 C 1154.49 274.261 1149.62 294.686 1144.95 313.627 C 1148.73 319.508 1152.23 325.479 1154.75 332.03 C 1166.96 363.87 1151.81 402.375 1138.62 431.757 C 1125.79 460.347 1104.07 513.457 1072.88 525.048 C 1046.73 534.766 1018.02 524.918 993.927 513.978 C 965.128 500.303 937.321 478.106 919.604 451.401 C 903.818 427.607 901.907 406.505 907.518 378.889 C 904.924 381.182 902.325 383.496 899.585 385.615 C 890.747 392.45 879.619 397.382 868.233 395.653 C 856.366 393.851 845.641 385.72 838.521 376.313 C 830.12 365.158 826.543 351.101 828.591 337.287 C 830.169 326.784 835.394 317.694 844.095 311.53 C 875.172 289.511 887.275 330.437 902.839 333.148 C 905.531 332.643 907.549 331.983 909.306 329.728 C 912.697 325.379 911.965 320.589 911.396 315.46 L 912.807 313.837 C 939.857 282.649 943.853 240.624 941.035 201.069 C 966.772 189.365 994.166 181.715 1022.24 178.391 z"/>
<path transform="translate(0,0)" fill="rgb(0,52,79)" d="M 989.876 382.206 C 1000.99 383.788 1012.48 388.128 1023.38 391 C 1057.74 400.05 1092.84 410.095 1128.53 410.644 C 1120.17 419.224 1118.05 433.592 1113.53 444.522 C 1109.9 453.284 1105.31 461.124 1099.68 468.734 C 1093.83 475.673 1086.5 481.212 1078.22 484.945 C 1065.57 490.569 1052.02 490.088 1039.3 485.203 C 1015.91 476.213 998.651 454.264 989.029 431.808 C 984.313 420.803 976.914 398.782 982.335 387.184 C 983.948 383.732 986.571 383.261 989.876 382.206 z"/>
<path transform="translate(0,0)" fill="rgb(252,239,211)" d="M 1001.64 406.187 C 1011.6 409.464 1020.89 413.692 1031.16 416.349 C 1055.54 422.66 1079.79 422.616 1104.61 425.108 C 1102.57 428.863 1100.28 432.45 1098.02 436.067 C 1095.38 436.824 1092.76 437.425 1090.01 437.52 C 1066.89 438.316 1023.11 436.972 1005.86 419.335 C 1002.59 415.997 1001.52 410.708 1001.64 406.187 z"/>
<path transform="translate(0,0)" fill="rgb(0,52,79)" d="M 1125.2 269.85 C 1128.07 269.802 1130.84 270.037 1133.36 271.53 C 1137.07 273.727 1139.37 277.825 1140.16 281.973 C 1142.58 294.561 1137.76 306.684 1130.64 316.773 C 1133.46 320.254 1136.28 324.074 1138.28 328.103 C 1143.45 338.491 1144.29 350.508 1140.6 361.511 C 1136.63 373.227 1127.41 382.926 1116.13 387.915 C 1108.67 391.216 1099.07 393.015 1091.33 389.617 C 1085.66 387.133 1083.14 384.034 1080.86 378.408 C 1081.01 378.082 1081.12 377.732 1081.31 377.429 C 1084.55 372.366 1099.76 370.018 1105.63 368.049 C 1111.81 365.976 1117.95 362.691 1120.68 356.439 C 1128.79 337.892 1100.17 315.648 1094.7 298.738 C 1093.04 293.593 1091.66 285.032 1094.79 280.14 C 1096.25 277.87 1097.59 277.559 1100.09 277.003 C 1105.83 278.632 1107.94 282.729 1110.79 287.671 C 1114.83 280.001 1117.81 274.844 1125.2 269.85 z"/>
<path transform="translate(0,0)" fill="rgb(0,52,79)" d="M 1032.32 218.428 C 1040.92 218.618 1048.7 219.367 1055.96 224.535 C 1060.64 227.869 1066.21 233.495 1066.96 239.505 C 1067.28 242.134 1066.66 243.262 1065.19 245.344 C 1058.14 248.409 1045.9 242.246 1038.38 241.012 C 1027.76 239.27 1019.49 243.257 1011.03 249.08 C 1005.36 253.492 1001.06 259.8 994.983 263.624 C 992.385 265.258 990.515 265.929 987.552 265.13 C 985.934 263.224 985.36 261.814 985.177 259.36 C 984.461 249.767 990.293 239.658 996.663 232.805 C 1007 221.682 1017.81 218.958 1032.32 218.428 z"/>
<path transform="translate(0,0)" fill="rgb(0,52,79)" d="M 1038.11 275.139 C 1040.59 275.141 1043.31 274.995 1045.69 275.719 C 1050.59 277.2 1054.65 281.577 1056.71 286.126 C 1060.23 293.923 1060.02 304.223 1057.05 312.158 C 1053.96 320.415 1049.77 324.487 1041.87 328.129 C 1039.18 328.189 1035.99 328.154 1033.45 327.18 C 1028.55 325.294 1024.9 320.688 1022.93 315.956 C 1019.43 307.536 1019.71 296.649 1023.45 288.369 C 1026.71 281.156 1030.9 277.947 1038.11 275.139 z"/>
<path transform="translate(0,0)" fill="rgb(0,52,79)" d="M 860.736 321.896 C 864.393 322.332 867.759 323.554 870.834 325.591 C 878.041 330.362 881.961 338.705 883.261 347.048 C 884.134 352.654 883.971 358.105 880.562 362.8 C 878.077 364.045 878.046 363.951 875.322 363.318 C 872.014 360.879 870.517 357.605 868.585 354.085 C 866.697 349.099 864.904 342.678 861.77 338.344 C 856.521 331.087 846.799 341.246 839.58 339.673 L 839.763 337.943 C 845.101 329.813 851.685 325.152 860.736 321.896 z"/>
<path transform="translate(0,0)" fill="rgb(252,177,105)" d="M 1203.68 508.038 C 1214.7 506.433 1228.01 513.755 1237.91 518.24 C 1274.29 534.706 1308.14 555.093 1340.58 578.362 C 1358.59 591.287 1376.11 606.01 1394.9 617.695 C 1411.68 628.128 1429.77 636.823 1447.03 646.477 C 1471.54 660.149 1495.23 675.246 1517.98 691.691 C 1547.64 713.108 1577.51 734.435 1606.7 756.488 C 1623.05 768.841 1657.84 798.215 1674.03 805.645 C 1687.5 811.824 1781.44 797.914 1801.88 794.596 C 1817.57 792.048 1834.18 787.564 1849.99 786.678 C 1852.82 786.519 1855.72 786.593 1858.27 787.957 C 1859.77 788.757 1859.72 789.812 1860.27 791.305 C 1860.1 792.901 1860.01 794.831 1859.04 796.198 C 1856.9 799.216 1851.88 801.307 1848.52 802.704 C 1838.56 806.852 1827.63 809.469 1817.36 812.874 C 1796.46 819.957 1775.51 826.9 1754.52 833.705 C 1772.66 832.594 1879.53 818.784 1889.78 823.874 C 1892.02 824.987 1892.53 826.107 1893.12 828.403 C 1892.67 830.079 1892.25 831.127 1891.07 832.46 C 1881.87 842.849 1810.52 846.908 1793.85 848.5 C 1772.22 851.007 1750.42 853.133 1729.56 859.714 C 1720.85 862.462 1701.95 868.429 1698.49 877.839 C 1692.99 892.774 1722.25 922.425 1727.14 936.899 C 1728.29 940.304 1729.43 945.359 1727.34 948.663 C 1725.59 951.428 1723.26 952.39 1720.15 952.839 C 1711.57 954.078 1704.75 948.485 1699.58 942.261 C 1691.08 932.037 1684.95 920.307 1674.02 912.251 C 1661.21 902.802 1638.94 901.833 1629.49 888.724 C 1616.57 870.818 1620.86 846.812 1600.93 832.614 C 1589.05 824.152 1575.32 817.407 1562.44 810.597 C 1524.83 790.714 1485.91 774.199 1447.6 755.828 C 1422.95 744.003 1401.89 726.759 1377.9 714.259 C 1363.48 706.743 1346.84 701.875 1331.53 696.37 C 1301.87 685.704 1271 672.961 1239.89 667.492 C 1229.47 665.66 1220.41 665.349 1209.98 667.055 C 1221.56 677.028 1230.71 687.06 1239 699.928 C 1229.26 696.768 1219.17 693.85 1209.82 689.676 C 1190.87 681.22 1180.81 662.1 1173.9 643.468 C 1163.19 614.621 1160.8 565.345 1173.99 537.144 C 1180.32 523.617 1189.37 513.152 1203.68 508.038 z"/>
<path transform="translate(0,0)" fill="rgb(252,177,105)" d="M 820.254 475.429 C 821.5 475.219 822.371 475.383 823.609 475.564 C 824.355 478.795 821.227 483.937 820.085 487.107 C 816.795 496.244 814.931 505.875 813.688 515.486 C 809.584 547.206 811.652 582.771 818.691 613.888 C 807.83 601.724 795.146 589.949 780.703 582.199 L 782.235 602.162 L 685.956 602.042 C 667.468 602.027 648.375 601.045 629.98 602.884 C 613.727 604.508 597.264 611.475 581.519 615.885 C 561.087 621.451 540.443 626.205 519.634 630.136 C 490.363 635.569 460.699 638.63 431.222 642.709 C 416.852 644.698 398.631 645.701 385.146 651.16 C 375.421 655.097 367.424 667.837 359.782 675.032 C 356.082 678.516 351.911 682.103 347.352 684.394 C 332.175 692.02 314.874 695.652 298.991 701.668 C 286.256 706.493 274.043 713.39 261.125 717.542 C 255.589 719.322 248.573 720.951 242.748 720.52 C 239.098 720.25 236.403 718.69 234.122 715.934 C 230.854 695.208 288.177 685.044 294.445 664.083 C 295.822 659.479 294.691 654.887 292.403 650.772 C 275.257 619.931 204.943 599.688 172.243 590.096 C 160.502 586.957 148.257 584.254 136.91 579.878 C 131.967 577.972 126.394 575.715 124.11 570.568 L 124.999 568.611 C 137.85 560.673 207.497 583.094 225.574 586.811 C 233.824 588.508 241.542 589.177 249.962 589.172 C 220.795 569.384 178.918 558.068 146.567 543.073 C 147.298 539.979 147.867 535.504 149.943 533.087 C 152.015 530.674 157.244 532.031 159.941 532.601 C 172.721 535.305 185.077 541.053 197.45 545.198 C 226.026 554.77 254.883 563.452 283.414 573.224 C 301.089 579.277 319.178 587.546 337.343 591.732 C 342.077 592.823 346.543 593.112 351.383 592.611 C 368.111 590.881 385.268 584.902 401.42 580.321 C 433.517 571.271 465.448 561.642 497.197 551.438 C 539.69 537.709 582.605 525.317 625.876 514.28 C 655.775 506.743 685.902 500.575 716.025 494.037 C 750.563 486.542 784.899 477.937 820.254 475.429 z"/>
<path transform="translate(0,0)" fill="rgb(242,126,29)" d="M 1287.07 864.006 L 1288.64 865.01 C 1293.27 878.587 1296.58 893.807 1296.88 908.167 C 1298.28 974.875 1258.91 1035.88 1214.43 1082.25 C 1200.94 1053.84 1178.44 1029.82 1149.19 1017.43 C 1120.07 1005.09 1087.66 1002.23 1058.01 1014.17 C 1071.62 991.846 1084.48 969.653 1102.33 950.331 C 1106.73 945.559 1111.31 940.971 1116.27 936.777 C 1122.88 931.194 1144.03 918.485 1146.77 911.944 C 1145.1 910.575 1144.53 910.542 1142.43 910.408 C 1116.92 908.778 1087.77 933.678 1069.89 949.246 C 1040.94 942.827 1017.41 931.404 993.196 914.505 C 1003.12 940.525 1018.33 960.057 1042.34 974.317 C 1044.46 975.474 1046.51 976.756 1048.58 977.998 L 1048.84 979.307 C 1045.2 984.924 1039.79 994.561 1034.27 998.279 C 1024.3 1004.99 999.723 1011.43 987.356 1015.77 C 956.02 1026.75 924.543 1037.37 893.698 1049.68 C 894.212 1037.6 892.618 1027.51 888.29 1016.18 C 875.69 983.188 836.777 926.324 803.505 911.563 C 855.267 888.704 913.063 878.326 968.175 866.862 C 981.96 879.823 999.578 888.645 1017.23 895.037 C 1037.49 902.233 1058.74 906.268 1080.22 907.002 C 1140.03 909.484 1232.2 889.488 1287.07 864.006 z"/>
<path transform="translate(0,0)" fill="rgb(252,177,105)" d="M 1084.6 1039.34 C 1103.62 1037.77 1122.72 1041.1 1140.09 1049 C 1161.87 1058.71 1178.9 1076.69 1187.41 1098.97 C 1184.18 1102.6 1180.63 1106.02 1177.23 1109.5 C 1189.81 1118.69 1201.85 1127.79 1212.36 1139.4 C 1260.55 1192.68 1268.13 1276.2 1300.59 1339.36 C 1306.36 1350.58 1313.5 1361.88 1321.09 1371.94 C 1333.15 1387.93 1346.69 1402.5 1353.81 1421.51 C 1351.31 1425.43 1348.72 1429.21 1345.77 1432.81 C 1328.15 1454.32 1292.99 1483.35 1264.43 1486.16 L 1263.17 1484.7 C 1262.21 1476.34 1267.19 1471.46 1270.62 1464.36 C 1271.76 1462.01 1272.41 1460.72 1271.57 1458.22 C 1270.5 1457.89 1270.23 1457.73 1268.96 1457.76 C 1249.88 1458.16 1245.24 1474.71 1234.86 1486.42 C 1232.56 1487.29 1232.62 1487.29 1230.33 1486.4 C 1229.44 1485.23 1228.26 1484.2 1228.08 1482.68 C 1227.15 1474.72 1237.14 1464.07 1241.82 1457.95 C 1235.66 1458.56 1229.46 1458.83 1223.7 1461.27 C 1213.79 1467.6 1206.31 1485.13 1197.43 1488.57 C 1195.32 1489.38 1194.87 1489.04 1192.91 1488.23 C 1188.95 1476.95 1208.57 1465.88 1210.18 1456.21 C 1208.6 1454.74 1208.27 1454.56 1206 1454.52 C 1181.9 1454.14 1176.8 1474.85 1162.13 1487.76 C 1159.49 1490.09 1157.06 1491.13 1153.56 1490.89 C 1152.54 1489.85 1151.48 1489.31 1151.37 1487.75 C 1151.08 1483.54 1154.37 1478.89 1156.62 1475.5 C 1179.99 1440.38 1219.2 1429.22 1239.86 1400.13 C 1246.45 1390.85 1249.58 1381.41 1248.03 1369.93 C 1246.2 1356.26 1238.81 1342.04 1231.66 1330.46 C 1216.3 1305.59 1196.2 1282.69 1177.47 1260.28 L 1103.44 1172.61 C 1083.58 1149.29 1049.56 1114.91 1044.49 1084.27 C 1042.8 1074.05 1044.39 1063.22 1050.8 1054.84 C 1059.23 1043.79 1071.57 1040.83 1084.6 1039.34 z"/>
<path transform="translate(0,0)" fill="rgb(242,126,29)" d="M 988.95 62.4088 C 1006.62 60.1487 1028.68 62.919 1045.95 67.0118 C 1071.89 73.1562 1102.15 88.4181 1116.27 112.049 C 1126.2 128.679 1122.77 142.611 1118.45 159.989 C 1108.29 138.412 1097.47 118.911 1076.76 105.671 C 1071.46 102.282 1060.74 96.7235 1054.57 98.131 L 1054.78 99.1383 C 1057.86 101 1061.07 102.676 1064.08 104.638 C 1075.22 111.891 1084.03 121.577 1086.72 135.01 C 1087.58 139.299 1088.44 146.818 1085.99 150.587 C 1080.21 148.543 1072.37 137.951 1067.2 133.71 C 1058.03 126.18 1047.54 120.951 1036.31 117.242 C 984.386 100.1 910.537 120.278 862.917 143.899 C 913.031 144.617 964.602 141.54 1013.77 153.319 C 957.634 158.751 892.108 185.134 842.065 210.588 C 867.601 207.28 893.256 209.78 918.712 205.551 C 918.79 238.052 914.87 267.592 897.345 295.594 C 887.882 288.721 877.409 282.53 865.58 281.102 C 848.631 279.056 835.272 286.712 822.641 296.918 C 819.843 299.623 817.089 302.349 814.683 305.417 C 801.072 322.775 800.379 342.383 802.992 363.484 C 770.581 358.18 750.52 353.476 720.511 338.972 C 735.296 336.696 749.062 332.038 762.483 325.43 C 785.887 313.907 806.52 297.148 828.446 283.114 C 846.409 271.615 866.901 262.098 883.138 248.281 C 854.06 258.377 821.833 265.79 791.403 270.398 C 748.251 276.933 709.105 277.265 672.504 250.249 C 682.354 249.477 691.857 248.066 701.112 244.47 C 725.867 234.849 747.971 219.031 772.087 207.84 C 794.473 197.452 822.626 189.854 843.063 178.423 C 797.588 177.565 766.818 172.751 730.201 144.073 C 792.393 151.446 851.038 106.49 905.889 83.5056 C 932.293 72.1456 960.325 65.0257 988.95 62.4088 z"/>
<path transform="translate(0,0)" fill="rgb(252,177,105)" d="M 772.197 925.886 C 772.404 925.957 772.619 926.008 772.818 926.101 C 804.784 940.954 846.227 996.03 859.859 1028.87 C 850.602 1031.14 841.625 1032.5 832.094 1032.88 C 825.493 1033.15 804.188 1030.5 799.84 1033.22 C 799.616 1034.62 799.198 1035.31 799.942 1036.64 C 806.406 1048.15 831.992 1055.66 844.078 1058.36 C 846.908 1069.87 850.77 1081.13 853.598 1092.66 C 858.333 1111.97 861.837 1131.58 865.425 1151.12 C 852.179 1151.14 833.415 1147.84 821.207 1153.22 C 814.414 1156.21 811.566 1161.1 809.098 1167.82 C 807.273 1184.42 807.791 1202.56 809.007 1219.2 C 798.901 1196.43 785.573 1174.81 772.907 1153.38 C 751.845 1117.75 730.589 1082.22 714.432 1044.02 C 706.136 1024.41 696.797 1000.84 705.528 979.797 C 716.218 954.035 747.847 936.092 772.197 925.886 z"/>
<path transform="translate(0,0)" fill="rgb(0,112,145)" d="M 950.687 1349.48 C 995.927 1351.06 1041.66 1349.81 1086.95 1349.77 L 1087.03 1490.87 L 950.86 1490.95 L 950.687 1349.48 z"/>
<path transform="translate(0,0)" fill="rgb(0,52,79)" d="M 1034.02 1380.1 L 1055.71 1380.2 L 1055.9 1462.1 L 1033.99 1462.2 L 1034.02 1380.1 z"/>
<path transform="translate(0,0)" fill="rgb(0,52,79)" d="M 980.671 1380.18 L 1002.05 1380.1 L 1002.1 1462.09 L 980.41 1462.4 L 980.671 1380.18 z"/>
<path transform="translate(0,0)" fill="rgb(0,112,145)" d="M 625.169 1349.78 C 670.315 1348.74 715.698 1349.77 760.876 1349.62 L 761.08 1491 L 625.122 1490.99 L 625.169 1349.78 z"/>
<path transform="translate(0,0)" fill="rgb(0,52,79)" d="M 655.107 1380.24 L 676.986 1380.24 C 676.25 1407.51 676.972 1434.95 677.066 1462.23 C 669.789 1462.13 662.5 1462.22 655.222 1462.23 L 655.107 1380.24 z"/>
<path transform="translate(0,0)" fill="rgb(0,52,79)" d="M 707.96 1380.14 L 729.832 1380.12 C 728.733 1407.38 729.53 1434.9 729.654 1462.19 L 708.104 1462.18 C 707.767 1434.85 707.971 1407.49 707.96 1380.14 z"/>
<path transform="translate(0,0)" fill="rgb(0,112,145)" d="M 787.6 1349.68 C 832.937 1350.27 878.328 1349.86 923.671 1349.87 L 923.599 1491.02 C 878.373 1490.02 832.921 1490.96 787.672 1490.97 C 786.656 1475.15 787.445 1458.83 787.454 1442.94 L 787.6 1349.68 z"/>
<path transform="translate(0,0)" fill="rgb(0,52,79)" d="M 817.227 1380.22 L 839.338 1380.17 C 839.195 1407.53 839.269 1434.89 839.561 1462.25 L 817.414 1462.24 C 818.535 1435.12 817.181 1407.42 817.227 1380.22 z"/>
<path transform="translate(0,0)" fill="rgb(0,52,79)" d="M 870.264 1380.19 L 892.045 1380.11 C 891.875 1407.48 891.872 1434.84 892.034 1462.21 L 870.413 1462.09 C 869.744 1434.83 870.26 1407.46 870.264 1380.19 z"/>
<path transform="translate(0,0)" fill="rgb(0,112,145)" d="M 837.4 1180.84 C 882.977 1180.25 928.63 1180.76 974.215 1180.74 C 974.187 1227.23 972.938 1274.12 974.511 1320.57 L 837.895 1320.62 C 837.024 1274.05 837.739 1227.42 837.4 1180.84 z"/>
<path transform="translate(0,0)" fill="rgb(0,52,79)" d="M 867.099 1210.01 L 889.915 1210.06 C 889.623 1237.59 889.955 1265.15 890.056 1292.68 L 867.164 1292.84 C 866.863 1265.24 867.115 1237.62 867.099 1210.01 z"/>
<path transform="translate(0,0)" fill="rgb(0,52,79)" d="M 921.7 1210.14 L 942.991 1210 L 943.035 1292.88 L 921.905 1292.56 L 921.7 1210.14 z"/>
<path transform="translate(0,0)" fill="rgb(0,112,145)" d="M 1879.32 1451.82 C 1879.63 1452.13 1880 1452.39 1880.27 1452.75 C 1882.11 1455.21 1883.43 1459.94 1884.6 1462.85 C 1895.91 1490.76 1895.34 1523.12 1889.3 1552.22 C 1876.05 1616.17 1834.6 1673.35 1780.34 1708.95 C 1727.36 1743.7 1668.01 1752.68 1606.5 1739.88 L 1583.3 1733.39 C 1601.4 1729.87 1619.82 1727.67 1637.78 1723.46 C 1691.21 1710.96 1737.35 1684.7 1777.44 1647.72 C 1834.56 1595.05 1876.07 1531.53 1879.32 1451.82 z"/>
<path transform="translate(0,0)" fill="rgb(107,205,201)" d="M 1016.5 1040.17 L 1017 1040.24 C 1017.21 1040.63 1017.61 1040.95 1017.63 1041.39 C 1017.64 1041.64 1012.53 1061.31 1012.11 1066.28 C 1008.56 1108.46 1036.85 1143.38 1062.56 1173.45 C 1041.76 1165.17 1018.31 1153.68 995.835 1151.39 C 982.913 1150.07 969.208 1150.93 956.196 1151.01 L 895.72 1151.01 C 893.021 1129.48 888.099 1108.06 883.653 1086.82 C 899.115 1082.16 914.459 1075.61 929.711 1070.18 C 958.568 1059.97 987.5 1049.96 1016.5 1040.17 z"/>
<path transform="translate(0,0)" fill="rgb(0,112,145)" d="M 366.041 1282.09 C 367.365 1283.61 364.881 1285.43 363.995 1286.45 C 355.704 1295.92 348.53 1306.31 342.612 1317.42 C 325.713 1349.05 318.997 1385.52 321.247 1421.14 C 323.681 1459.68 338.639 1502.82 362.86 1533.14 C 371.275 1543.68 381.246 1552.59 391.331 1561.46 C 378.781 1557.3 366.703 1553.08 354.946 1546.94 C 325.508 1531.73 301.922 1506.11 287.52 1476.36 C 271.69 1443.67 268.619 1403.78 280.707 1369.44 C 295.677 1326.91 326.334 1300.99 366.041 1282.09 z"/>
<path transform="translate(0,0)" fill="rgb(107,205,201)" d="M 1088.73 1206.75 C 1135.09 1256.7 1186.57 1314.24 1218.19 1374.64 C 1212.66 1380.98 1206.53 1386.88 1200.63 1392.89 L 1186.52 1406.79 C 1184.94 1383.77 1185.92 1360.13 1185.93 1337.04 C 1139.83 1317.27 1137.12 1321.12 1088.06 1320.41 L 1087.89 1249.89 C 1087.87 1235.81 1086.79 1220.66 1088.73 1206.75 z"/>
<path transform="translate(0,0)" fill="rgb(0,112,145)" d="M 1001.4 1181.91 C 1021.22 1186.94 1040.96 1195.61 1060.12 1202.77 L 1060.06 1320.77 C 1040.48 1321.04 1020.9 1320.94 1001.32 1320.48 L 1001.4 1181.91 z"/>
<path transform="translate(0,0)" fill="rgb(252,177,105)" d="M 905.815 479.721 C 912.613 485.676 918.217 493.999 924.441 500.665 C 947.669 525.542 983.372 546.959 1016.29 554.698 C 1028.66 557.608 1041.05 558.347 1053.7 558.839 C 1048.03 565.798 1042.2 572.286 1035.71 578.486 C 1034.64 579.435 1033.54 580.358 1032.42 581.256 C 1018.67 592.406 1002.38 597.261 984.78 595.202 C 962.504 592.597 941.205 579.687 927.608 562.026 C 909.724 538.563 901.886 508.96 905.815 479.721 z"/>
<path transform="translate(0,0)" fill="rgb(0,112,145)" d="M 1128.54 1351.52 C 1138.22 1350.93 1150.06 1357.15 1159.04 1360.67 C 1158.92 1382.59 1156.55 1408.79 1160.33 1430.23 C 1147.05 1440.63 1134.51 1454.22 1126.01 1468.83 C 1122.84 1475.37 1122.14 1485.84 1117.59 1491.27 L 1116.14 1490.47 C 1112.75 1482.12 1114.14 1370.08 1114.45 1351.7 L 1128.54 1351.52 z"/>
<path transform="translate(0,0)" fill="rgb(252,177,105)" d="M 806.981 1268.86 C 810.516 1273.75 808.368 1311.93 808.327 1320.32 L 711.341 1320.2 L 710.592 1319.49 C 718.812 1315.31 728.989 1313.35 737.699 1309.86 C 763.149 1299.64 785.42 1285.7 806.981 1268.86 z"/>
<path transform="translate(0,0)" fill="rgb(242,126,29)" d="M 820.706 399.292 C 824.488 399.7 835.374 411.839 840.073 414.526 C 849.898 420.144 860.413 422.043 871.471 423.616 C 856.857 427.692 839.642 428.736 824.756 425.814 C 804.175 421.001 790.303 413.622 774.057 400.343 C 788.874 402.034 806.551 405.555 820.706 399.292 z"/>
<path transform="translate(0,0)" fill="rgb(252,177,105)" d="M 1798.44 865.384 C 1811.58 864.289 1831.13 862.227 1843.4 867.182 C 1846.99 868.634 1848.85 870.394 1850.31 873.959 C 1849.64 875.966 1849.42 876.55 1847.59 877.817 C 1838.77 883.915 1821.59 880.347 1811.5 878.943 C 1790.97 875.175 1771.44 872.895 1750.5 872.91 C 1766.15 869.261 1782.47 867.217 1798.44 865.384 z"/>
<path transform="translate(0,0)" fill="rgb(242,126,29)" d="M 1147.5 122.823 C 1150.83 124.894 1154.15 127.541 1156.86 130.376 C 1165.2 139.125 1166.39 148.234 1165.96 159.734 C 1163.37 163.851 1160.34 167.646 1157.37 171.5 C 1157.08 171.651 1156.8 171.832 1156.49 171.954 C 1152.34 173.6 1147.48 170.682 1143.69 169.055 C 1150.29 152.931 1147.91 140.405 1147.52 123.679 L 1147.5 122.823 z"/>
<path transform="translate(0,0)" fill="rgb(252,177,105)" d="M 146.614 608.37 C 151.983 607.804 157.484 607.443 162.869 607.978 C 172.339 608.919 202.935 615.19 210.247 620.455 L 208.755 621.233 C 203.07 619.874 197.476 618.746 191.65 618.192 C 180.28 617.111 153.587 618.774 144.902 612.784 L 144.524 610.716 L 146.614 608.37 z"/>
</svg>